<?xml version="1.0" standalone="no"?>
<!DOCTYPE svg PUBLIC "-//W3C//DTD SVG 20010904//EN"
 "http://www.w3.org/TR/2001/REC-SVG-20010904/DTD/svg10.dtd">
<svg version="1.0" xmlns="http://www.w3.org/2000/svg"
 width="2000.000000pt" height="2000.000000pt" viewBox="0 0 2000.000000 2000.000000"
 preserveAspectRatio="xMidYMid meet">
<metadata>
Created by potrace 1.14, written by Peter Selinger 2001-2017
</metadata>
<g transform="translate(0.000000,2000.000000) scale(0.100000,-0.100000)"
fill="#000000" stroke="none">
<path d="M7555 14335 c-61 -39 -77 -45 -126 -45 -41 0 -76 -8 -128 -32 l-72
-31 -140 53 -141 53 -69 -31 -70 -31 -93 36 -94 36 -69 -27 c-37 -14 -86 -26
-106 -26 -21 0 -72 -14 -113 -31 l-75 -31 -85 32 c-83 33 -86 33 -120 17 -34
-17 -37 -16 -109 14 -59 24 -78 28 -94 20 -11 -6 -48 -20 -83 -31 l-62 -19
-59 33 -59 33 -60 -18 c-81 -26 -91 -24 -158 17 l-57 35 -55 -14 c-31 -8 -72
-26 -93 -40 l-38 -26 -76 28 c-75 27 -76 27 -106 9 -17 -10 -49 -18 -75 -18
-32 0 -56 -7 -82 -25 -20 -14 -42 -25 -48 -25 -6 0 -38 18 -71 41 l-60 40 -94
-65 -93 -66 -65 71 -65 71 -31 -21 c-16 -12 -48 -43 -70 -69 l-41 -47 -57 56
c-91 87 -89 86 -121 56 l-27 -25 -120 24 c-149 29 -147 29 -183 -1 -26 -21
-40 -25 -98 -25 -68 0 -69 0 -114 -45 l-47 -46 -72 67 -72 67 -22 -22 c-23
-21 -158 -61 -208 -61 -15 0 -85 18 -156 40 l-128 40 -75 -15 c-41 -9 -110
-27 -153 -42 l-78 -26 -76 22 -76 22 -36 -35 -35 -35 -83 45 -82 45 -17 -26
c-9 -14 -22 -25 -29 -25 -7 0 -39 -14 -71 -30 l-58 -31 -54 54 -54 54 -101
-54 c-56 -29 -105 -53 -109 -53 -3 0 -24 22 -45 50 -21 27 -41 49 -45 50 -3 0
-31 -20 -60 -44 l-55 -44 -68 54 c-37 30 -73 54 -79 53 -6 0 -40 -24 -76 -54
l-64 -53 -28 20 -28 20 -66 -22 -66 -22 -139 62 -138 62 -54 -16 c-53 -15 -57
-19 -156 -151 -56 -75 -104 -142 -107 -149 -3 -7 7 -44 21 -81 l25 -68 -75
-138 -75 -138 30 -80 c16 -43 44 -110 63 -148 l34 -68 -53 -118 c-30 -65 -54
-123 -54 -128 0 -6 10 -23 21 -38 l21 -29 -25 -77 -26 -77 21 -28 c12 -17 31
-78 48 -157 15 -70 43 -163 61 -205 l33 -78 -43 -102 c-83 -198 -79 -178 -48
-253 15 -36 27 -78 27 -93 0 -15 -16 -76 -36 -136 l-37 -109 44 -38 43 -37
-39 -47 c-22 -26 -51 -61 -64 -77 l-24 -30 73 -73 72 -72 -67 -72 -68 -72 21
-22 c26 -28 102 -171 102 -193 0 -9 -19 -77 -42 -151 l-42 -135 37 -72 c35
-66 37 -77 37 -159 0 -76 -4 -98 -35 -174 l-35 -86 25 -69 c13 -37 22 -74 19
-81 -3 -8 4 -38 16 -68 l20 -54 -61 -55 c-56 -51 -61 -58 -55 -86 5 -21 22
-42 52 -64 24 -19 43 -37 42 -41 -2 -4 -21 -42 -43 -84 l-40 -76 28 -24 c15
-13 27 -30 27 -36 0 -7 14 -43 31 -80 l32 -68 -57 -62 c-45 -48 -56 -66 -51
-83 4 -12 9 -32 12 -46 4 -14 24 -41 45 -60 l40 -35 -50 -71 -50 -71 30 -30
c25 -26 28 -34 19 -51 -6 -11 -11 -52 -11 -89 0 -67 1 -70 39 -107 l40 -39
-41 -76 -40 -76 51 -85 51 -85 -67 -67 c-66 -66 -66 -67 -50 -92 10 -14 17
-36 17 -48 0 -13 11 -41 25 -62 l24 -40 -50 -63 c-53 -68 -57 -79 -34 -109 9
-13 12 -31 8 -56 -4 -31 -1 -44 20 -72 l26 -34 -27 -76 c-22 -62 -25 -79 -15
-93 17 -24 83 -164 83 -175 0 -4 -31 -31 -70 -59 -38 -28 -70 -54 -70 -57 0
-3 5 -20 12 -38 8 -23 8 -43 0 -73 -10 -40 -8 -47 60 -188 l70 -145 -37 -83
-37 -82 36 -71 36 -71 -65 -144 c-36 -80 -65 -154 -65 -164 0 -26 48 -284 54
-290 2 -2 35 11 73 30 l69 35 69 -44 70 -43 72 40 73 40 71 -42 c69 -41 70
-41 102 -26 18 9 68 30 113 47 l80 31 145 -52 144 -52 45 18 c90 35 118 40
162 28 40 -11 43 -10 84 23 l41 34 73 -56 72 -56 28 21 c16 11 33 21 37 21 4
0 28 16 52 35 24 19 47 35 50 35 4 0 37 -25 75 -56 l67 -57 29 22 c23 16 43
21 96 21 37 0 87 8 115 17 l49 18 59 -59 c58 -58 59 -58 94 -47 20 7 51 9 70
6 31 -6 35 -3 61 35 15 23 33 40 39 37 7 -3 45 -20 86 -38 l74 -33 21 27 c13
16 42 33 71 42 28 8 73 28 100 45 l50 29 62 -61 63 -62 35 17 c25 12 48 15 77
11 34 -6 52 -1 119 31 l78 39 50 -24 51 -23 69 30 69 31 132 -73 133 -73 61
28 c46 20 91 30 176 39 114 12 115 12 155 52 23 21 45 39 50 39 5 0 40 -30 77
-67 l67 -67 24 22 c16 15 36 22 65 22 36 0 46 6 86 48 l45 47 70 -70 71 -69
29 28 29 27 102 -21 c61 -13 105 -19 109 -13 3 5 19 26 35 47 l29 37 41 -38
c23 -21 54 -50 69 -63 l29 -25 23 29 c22 28 26 29 52 17 27 -12 30 -11 62 28
l33 40 56 -65 56 -64 24 30 c20 26 27 29 39 18 12 -10 17 -9 24 3 4 9 17 26
27 39 l19 24 68 -64 c40 -39 70 -60 72 -53 3 7 12 22 22 34 17 21 18 21 49 5
l33 -17 74 62 74 61 74 -60 74 -61 57 35 c31 19 60 34 65 34 4 0 63 -22 131
-50 68 -27 127 -50 132 -50 5 0 67 32 139 71 l130 71 148 -65 147 -65 120 59
c113 56 274 114 296 107 5 -2 25 -42 43 -88 38 -99 49 -103 105 -38 l36 41 80
-27 80 -26 64 60 c36 33 69 60 73 60 4 0 35 -19 67 -42 54 -38 61 -40 77 -26
42 35 156 99 162 90 73 -111 94 -142 98 -142 2 0 14 7 27 15 21 14 30 14 95
-2 l71 -17 36 35 35 34 69 -37 c80 -44 86 -45 115 -18 12 11 42 23 71 26 30 4
64 18 88 35 21 16 44 25 50 21 6 -4 37 -24 68 -46 l57 -38 54 31 55 31 195
-11 c170 -11 199 -10 219 3 13 8 34 22 48 31 25 16 27 16 95 -33 l69 -49 30
18 c28 17 39 18 123 8 97 -11 91 -12 158 37 9 7 36 -3 84 -28 l71 -37 29 20
c16 12 42 21 58 21 15 0 46 11 68 24 l39 24 69 -48 68 -48 52 29 c29 16 96 43
149 59 l96 30 122 -66 c110 -60 124 -65 162 -59 41 7 49 13 106 79 l33 37 76
-61 76 -61 31 29 c17 16 53 46 79 67 l48 38 68 -67 68 -67 37 23 c21 13 58 40
82 62 l44 38 56 -48 c92 -81 91 -80 117 -55 13 11 27 21 32 21 5 0 30 21 56
46 l47 46 71 -56 c38 -31 74 -56 79 -56 5 0 19 11 32 25 13 14 34 25 46 25 13
0 47 9 76 21 l53 21 61 -66 c59 -64 61 -65 91 -54 21 8 43 8 74 1 43 -9 45 -8
84 28 l40 38 70 -44 c39 -25 75 -45 81 -45 6 0 19 9 29 20 10 11 25 20 34 20
9 0 40 11 69 25 30 14 58 25 62 25 5 0 37 -24 72 -54 60 -52 64 -54 90 -40 15
8 35 14 44 14 9 0 54 34 99 75 46 41 87 75 92 75 5 0 39 -31 77 -69 l68 -69
57 34 57 34 118 -45 c130 -49 142 -52 172 -31 11 8 66 39 123 69 l103 55 147
-65 146 -64 60 29 c33 16 81 48 107 72 30 26 52 39 60 34 7 -4 41 -32 75 -61
l61 -54 69 60 c37 34 71 61 75 61 3 0 31 -20 61 -45 31 -25 58 -45 61 -45 2 0
7 13 11 30 4 16 11 32 16 35 5 3 32 -15 60 -41 40 -39 52 -45 60 -33 5 7 9 17
9 20 0 4 27 0 59 -8 l60 -15 40 32 c45 36 42 37 124 -34 l57 -49 30 21 c16 12
37 22 47 22 10 0 36 20 58 45 l40 45 72 -60 c40 -33 76 -60 81 -60 5 0 19 11
32 25 13 14 31 25 40 25 10 0 36 20 59 45 23 25 43 45 45 45 2 0 36 -25 75
-55 39 -30 76 -55 81 -55 5 0 17 11 26 25 9 14 26 25 37 25 12 0 40 19 63 41
l43 42 74 -47 c41 -25 77 -46 80 -46 4 0 17 11 31 25 42 41 96 35 178 -21 l67
-46 31 22 c35 25 267 94 352 104 l57 7 47 -70 c26 -39 53 -71 60 -71 8 0 30
24 50 54 l36 55 61 -35 c112 -63 106 -62 136 -26 14 18 32 32 39 32 7 0 36 12
64 26 l51 26 58 -58 58 -57 38 11 c21 7 66 17 101 22 34 6 83 20 108 31 25 10
47 19 49 19 2 0 31 -23 65 -51 l61 -51 51 14 c48 12 53 16 72 60 l19 47 88
-45 89 -44 15 29 c8 16 31 39 51 51 l36 23 67 -67 c82 -81 91 -77 91 40 l0 81
112 65 112 64 -3 108 c-2 82 -8 124 -27 178 -13 39 -24 80 -24 89 0 10 17 78
37 150 41 147 43 122 -20 319 l-34 105 43 148 43 148 -46 142 -45 142 38 117
c36 111 37 118 21 136 -13 14 -17 38 -17 101 0 65 -4 89 -19 109 -10 15 -28
53 -39 84 l-21 57 49 43 c28 24 50 48 50 54 0 6 -10 24 -22 39 -12 15 -29 51
-39 79 l-17 51 35 62 34 62 -19 48 c-11 26 -29 82 -42 123 l-22 75 66 137 65
138 -23 67 c-13 38 -40 101 -60 140 l-36 73 66 145 c42 95 63 152 59 165 -3
11 -29 39 -56 63 l-51 44 41 81 c24 48 37 84 31 87 -6 4 -35 40 -66 82 l-56
75 68 69 c67 67 67 68 51 93 -10 14 -17 40 -17 58 0 19 -11 49 -25 70 -14 20
-25 42 -25 49 0 6 23 40 51 75 l51 64 -21 29 c-12 16 -21 45 -21 65 0 19 -11
64 -24 100 l-24 64 43 135 42 135 -38 69 -39 70 51 151 51 151 -35 58 c-31 53
-107 212 -107 226 0 4 29 70 65 147 l64 140 -30 68 c-17 37 -44 101 -60 143
l-30 77 56 147 56 147 -46 83 c-25 46 -45 88 -45 94 0 6 26 74 58 151 l59 141
-94 192 c-85 172 -94 195 -85 222 5 17 28 80 50 141 39 110 40 112 21 131 -12
12 -24 48 -33 99 -8 45 -22 98 -30 119 -9 21 -14 40 -12 43 4 4 -48 118 -60
131 -2 2 -10 -2 -18 -8 -8 -7 -23 -10 -33 -7 -10 3 -40 -1 -66 -9 l-48 -14
-26 54 c-30 61 -56 71 -88 35 -24 -26 -32 -25 -85 10 -54 36 -69 27 -46 -29
l16 -41 -49 0 c-74 0 -111 -10 -111 -29 0 -22 -57 -141 -67 -141 -4 0 -31 10
-60 22 -29 12 -56 18 -60 15 -3 -4 1 -23 10 -43 10 -19 15 -39 12 -43 -2 -5
-31 -16 -64 -25 l-60 -17 3 -57 c2 -31 7 -71 11 -88 6 -29 5 -32 -25 -38 -18
-3 -49 -6 -69 -6 -36 0 -37 -1 -49 -53 -6 -29 -12 -72 -12 -95 0 -23 -4 -42
-10 -42 -5 0 -39 12 -75 27 -36 14 -68 23 -72 20 -3 -4 -6 -25 -5 -47 2 -35
-3 -43 -38 -71 -30 -24 -40 -39 -39 -58 1 -14 -8 -58 -20 -97 l-22 -71 -82 -9
c-81 -9 -82 -9 -99 -45 -9 -19 -23 -41 -32 -48 -9 -8 -16 -28 -16 -45 0 -23
-14 -48 -50 -93 -35 -43 -50 -71 -50 -92 0 -16 -13 -58 -29 -94 l-29 -64 -53
-6 c-30 -4 -70 -7 -90 -7 -41 0 -44 -4 -55 -76 -5 -39 -17 -61 -55 -105 l-49
-56 -6 -101 -7 -101 -56 -6 c-124 -13 -131 -15 -131 -38 0 -12 -7 -33 -15 -47
-8 -14 -24 -45 -37 -70 -13 -25 -27 -48 -32 -52 -5 -3 -40 -9 -78 -13 -67 -7
-70 -9 -94 -46 -17 -27 -42 -48 -79 -66 l-55 -27 -48 46 -47 46 -33 -16 c-33
-16 -33 -16 -59 17 -25 32 -28 33 -87 29 l-61 -3 -11 95 c-7 52 -13 97 -13 99
-1 4 -89 -4 -157 -15 l-41 -6 -14 88 -14 89 -43 -3 c-23 -2 -42 1 -42 6 0 5
-18 16 -39 24 -35 14 -41 22 -58 74 -16 51 -22 59 -55 72 -22 9 -38 22 -38 31
1 46 31 256 46 320 l17 73 140 69 c78 38 144 74 148 81 3 7 9 31 13 53 4 22
15 65 26 95 10 30 26 81 35 113 l16 57 138 70 139 69 16 58 c9 32 23 71 31 86
9 18 15 56 15 98 0 67 2 73 70 194 43 77 70 136 70 155 0 34 -7 36 -56 15 -35
-14 -35 -14 -175 60 l-139 75 -62 -25 c-34 -14 -82 -25 -107 -26 -30 0 -71
-12 -116 -33 l-70 -32 -146 59 -146 60 -59 -27 c-39 -17 -74 -44 -105 -78
l-46 -51 -117 12 c-95 9 -121 9 -134 -1 -9 -7 -60 -72 -114 -145 -83 -113
-103 -133 -131 -138 l-33 -6 4 -67 4 -68 -60 -12 c-58 -12 -60 -13 -66 -50 -3
-20 -6 -51 -6 -68 0 -30 -2 -32 -59 -44 -57 -12 -59 -13 -65 -49 -3 -20 -6
-47 -6 -61 0 -19 -10 -31 -42 -49 -35 -19 -46 -32 -62 -74 -20 -57 -22 -84
-11 -137 l7 -36 -59 -15 c-52 -14 -58 -18 -59 -43 -1 -15 -6 -32 -11 -37 -7
-7 -6 -25 3 -56 8 -26 14 -50 14 -54 0 -4 -24 -10 -52 -14 -80 -10 -90 -14
-83 -35 3 -10 1 -21 -5 -25 -5 -3 -10 -14 -10 -23 0 -9 -16 -39 -35 -66 -19
-27 -35 -56 -35 -63 0 -21 -55 -97 -83 -116 -13 -8 -42 -19 -63 -23 -21 -4
-58 -20 -82 -36 -24 -17 -45 -28 -46 -26 -2 1 -8 16 -13 33 -13 39 -73 60
-115 39 -26 -13 -28 -12 -69 35 l-42 49 -40 -14 c-23 -8 -44 -11 -48 -7 -4 5
-14 33 -21 63 -14 53 -15 54 -51 57 -20 1 -62 -7 -91 -17 l-55 -18 -36 93 -36
93 -32 -9 c-26 -8 -47 -4 -112 19 l-80 28 -10 64 c-9 60 -12 65 -42 73 -31 9
-43 29 -43 72 0 11 -14 49 -30 83 -17 35 -30 67 -30 71 0 5 28 16 63 25 86 23
91 27 76 60 -11 23 -10 28 7 40 17 13 17 19 7 67 -6 30 -9 57 -7 60 2 3 42 14
88 25 l85 18 -3 81 c-2 44 -7 92 -10 106 -7 25 -6 26 86 50 l93 24 -3 37 c-3
41 21 96 64 147 l26 31 -42 70 c-40 67 -43 69 -63 55 -12 -8 -35 -15 -52 -15
-20 0 -47 -13 -80 -40 l-49 -39 -49 67 c-27 37 -50 69 -52 71 -2 2 -16 -6 -30
-17 -15 -12 -32 -19 -39 -16 -7 3 -26 -12 -41 -33 -16 -21 -30 -40 -31 -42 -2
-1 -35 24 -75 58 -40 34 -76 61 -79 61 -4 0 -13 -11 -20 -25 -10 -20 -21 -25
-49 -25 -30 0 -42 -7 -77 -47 l-41 -47 -76 62 -76 63 -16 -25 c-9 -13 -28 -27
-43 -31 -103 -24 -100 -22 -128 -85 -15 -33 -29 -60 -33 -60 -13 0 -234 -39
-236 -42 -2 -2 -20 -34 -40 -73 -34 -66 -36 -74 -29 -133 l6 -63 -101 -95
-101 -96 0 -72 c0 -68 -2 -75 -37 -123 -21 -27 -53 -82 -72 -121 l-34 -70
-141 -34 -141 -33 -33 -63 c-18 -34 -45 -70 -58 -79 -24 -15 -32 -15 -124 7
l-99 23 -78 136 -78 136 -71 19 c-66 17 -77 24 -137 85 l-66 66 31 133 30 133
-46 49 -47 50 3 117 3 117 105 32 c85 25 106 35 108 51 3 18 -8 24 -75 42 -43
11 -109 30 -146 40 l-68 20 -38 -35 c-21 -18 -42 -34 -47 -34 -5 0 -38 29 -74
65 l-65 64 -72 -65 -73 -65 -27 19 c-16 11 -46 39 -68 61 -21 23 -43 41 -49
41 -5 0 -40 -27 -77 -60 -37 -33 -71 -60 -75 -60 -4 0 -29 20 -55 45 -26 25
-52 45 -57 45 -6 0 -13 -11 -16 -25 -4 -14 -12 -25 -19 -25 -11 0 -106 26
-166 45 -17 5 -22 0 -29 -27 -6 -27 -19 -39 -71 -67 l-64 -34 -86 42 c-105 50
-313 130 -324 124 -4 -2 -23 -29 -42 -59 -19 -30 -38 -54 -42 -54 -3 0 -38 20
-77 44 -39 23 -77 46 -83 50 -8 4 -17 -3 -25 -19 -6 -14 -40 -41 -79 -64 l-68
-39 -61 69 -62 69 -31 -18 c-22 -13 -40 -17 -57 -12 -44 14 -56 11 -71 -16 -7
-15 -42 -46 -76 -71 l-63 -45 -68 59 -67 60 -80 -43 c-44 -24 -83 -44 -87 -44
-7 0 -68 73 -103 123 -19 28 -45 15 -85 -44 -18 -27 -38 -53 -42 -55 -5 -3
-45 20 -90 52 -63 44 -83 53 -89 43 -19 -32 -27 -38 -92 -78 -38 -23 -72 -39
-77 -36 -4 3 -29 41 -55 85 -26 44 -48 80 -48 80 -1 0 -33 -21 -72 -45z m1804
-818 c38 -19 47 -29 59 -69 l15 -47 -37 -34 c-31 -30 -36 -41 -37 -83 -1 -75
-30 -167 -55 -178 -18 -8 -21 -16 -17 -48 3 -21 1 -50 -5 -65 -6 -16 -16 -68
-22 -118 -5 -49 -14 -121 -19 -159 -12 -89 -7 -100 120 -233 54 -57 113 -129
132 -161 l33 -57 104 -17 c115 -19 260 -58 329 -89 25 -11 97 -51 162 -89 104
-63 160 -86 145 -61 -3 5 34 12 82 16 141 12 263 47 593 173 86 33 201 71 257
86 56 15 120 33 142 41 70 25 286 65 428 80 339 36 653 5 827 -82 106 -54 321
-252 410 -378 57 -81 72 -94 96 -88 33 9 361 -231 533 -389 260 -239 423 -496
466 -736 14 -80 -17 -229 -58 -281 -16 -20 -41 -64 -57 -98 -15 -35 -34 -68
-42 -74 -8 -7 -11 -20 -7 -31 15 -47 -17 -108 -104 -202 -103 -110 -131 -131
-199 -153 -44 -14 -53 -21 -53 -39 0 -89 -96 -220 -193 -264 -51 -23 -62 -33
-91 -86 -29 -53 -38 -61 -84 -76 -76 -26 -157 -36 -367 -47 -213 -12 -277 -21
-379 -58 -70 -25 -74 -26 -265 -19 -179 6 -197 9 -242 32 -47 23 -63 22 -37
-4 9 -9 7 -12 -10 -12 -23 0 -58 42 -48 58 3 5 -12 21 -34 36 -33 21 -41 24
-46 12 -3 -8 -1 -24 6 -35 8 -17 8 -21 -3 -21 -17 0 -40 26 -43 48 -3 14 -9
21 -43 41 -10 6 -14 27 -14 67 0 61 15 101 59 161 25 33 125 95 185 114 19 6
41 13 49 16 8 3 -18 18 -60 34 -63 24 -89 29 -165 29 -99 0 -160 -14 -250 -56
-52 -24 -74 -28 -170 -31 -105 -2 -179 -15 -362 -64 -40 -10 -84 -19 -98 -19
-33 0 -65 17 -65 34 0 7 -14 16 -31 20 -52 10 -176 7 -204 -6 -21 -10 -27 -9
-38 6 -11 15 -24 17 -68 13 -30 -2 -64 -8 -76 -12 -15 -5 -27 -1 -41 13 -10
10 -33 26 -51 35 -28 14 -36 14 -73 1 -61 -21 -75 -18 -81 16 -8 37 -25 38
-76 4 -53 -35 -110 -31 -129 8 -19 40 -48 43 -115 13 -65 -28 -87 -31 -87 -11
0 7 -6 25 -14 40 -13 26 -13 26 -31 6 -23 -26 -45 -26 -45 0 0 24 -35 27 -64
5 -29 -22 -47 -19 -88 15 -22 18 -43 28 -52 24 -9 -3 -23 -1 -31 6 -33 27
-188 -15 -289 -79 -84 -53 -161 -85 -205 -84 -20 0 -102 -7 -183 -15 -166 -16
-316 -9 -572 29 -129 19 -144 19 -205 5 -79 -18 -510 -27 -811 -17 -166 6
-199 5 -220 -9 -18 -11 -66 -17 -170 -22 -445 -20 -444 -20 -457 -38 -9 -13
-33 -18 -105 -23 -51 -3 -140 -18 -198 -32 -169 -42 -258 -55 -384 -55 -65 0
-159 -5 -208 -12 -101 -13 -107 -11 -115 49 -5 37 -2 43 53 102 97 105 170
148 432 255 195 79 254 108 475 233 231 131 386 193 483 193 23 0 52 21 139
102 60 56 146 145 190 198 101 121 216 236 277 277 l48 32 -6 63 c-4 35 -10
67 -15 73 -14 15 -10 42 12 84 11 22 18 45 14 51 -4 7 0 26 9 43 9 18 20 50
26 72 12 52 65 135 85 135 11 0 15 10 15 35 0 19 -4 35 -10 35 -5 0 -10 18
-10 40 0 36 -2 40 -25 40 -28 0 -30 9 -13 56 9 26 9 38 -1 57 -14 27 -5 75 31
160 15 33 18 51 10 59 -7 7 -12 1 -17 -21 -5 -22 -12 -31 -26 -31 -22 0 -23 6
-4 40 21 37 19 63 -4 55 -30 -9 -32 19 -6 69 22 41 22 46 8 54 -12 7 -14 18
-10 40 5 23 2 34 -9 40 -14 8 -15 12 -1 38 8 16 36 57 61 92 25 34 46 66 46
71 0 16 -64 20 -73 5 -7 -13 -37 -20 -37 -10 0 3 25 48 56 102 31 53 75 136
97 183 52 108 53 144 5 203 -78 96 -76 203 4 244 41 21 121 15 177 -14 53 -28
76 -27 181 3 99 29 195 83 370 205 155 108 153 107 225 115 49 5 67 3 100 -14
40 -21 100 -28 109 -13 3 5 58 12 123 15 65 3 132 11 148 17 90 34 253 33 324
-3z m6337 -1997 c49 -5 163 -14 254 -20 436 -30 775 -97 962 -191 275 -138
416 -336 463 -649 22 -145 19 -243 -10 -346 -35 -120 -128 -308 -211 -424 -82
-114 -260 -300 -379 -395 -47 -38 -82 -72 -78 -76 5 -4 40 -18 78 -32 212 -76
458 -199 610 -305 168 -118 317 -296 386 -460 120 -290 131 -693 26 -997 -99
-288 -295 -545 -586 -768 -62 -49 -79 -57 -115 -57 -34 0 -48 -6 -72 -31 -30
-32 -126 -101 -156 -112 -10 -3 -23 0 -30 7 -10 11 -21 8 -61 -16 -27 -16 -82
-40 -121 -53 -73 -24 -492 -95 -562 -95 -31 0 -46 -7 -76 -37 l-38 -37 -49 18
c-46 16 -51 16 -81 1 -18 -9 -46 -16 -64 -15 -94 3 -541 -3 -624 -8 l-97 -7 2
155 c2 101 13 236 34 390 40 314 48 474 59 1215 5 347 16 871 25 1165 18 564
16 1112 -5 1335 -6 66 -30 226 -52 355 -44 257 -50 349 -25 395 34 67 95 100
200 111 61 6 68 10 96 44 l30 38 89 -45 c76 -39 100 -46 178 -53z m-12627 -84
c37 8 89 -12 175 -66 l64 -40 578 15 c319 8 683 14 809 13 229 -3 231 -3 385
31 126 27 178 34 280 35 115 1 129 -1 175 -24 112 -57 141 -227 57 -338 -40
-53 -69 -62 -215 -69 -117 -5 -153 -2 -322 26 -437 71 -641 86 -1175 85 -489
-2 -570 -8 -629 -47 -38 -25 -38 -25 -69 -179 -49 -234 -61 -319 -72 -477 -6
-80 -17 -193 -25 -251 -24 -160 -33 -323 -24 -424 7 -81 19 -142 60 -299 12
-46 72 -115 116 -134 18 -7 67 -13 110 -13 63 0 80 -4 98 -20 36 -33 128 -43
320 -34 94 5 240 8 325 9 142 0 159 2 202 23 45 22 53 23 132 13 52 -6 96 -7
116 -1 51 15 239 40 319 42 l74 3 20 -39 c29 -55 34 -144 12 -203 -28 -74 -77
-120 -151 -143 -141 -43 -433 -49 -792 -14 -219 20 -590 44 -699 44 -81 0 -98
-3 -131 -24 -54 -35 -84 -71 -84 -103 0 -15 -11 -75 -24 -133 -61 -272 -77
-514 -58 -885 18 -348 18 -483 -1 -519 -14 -27 -14 -35 10 -105 42 -127 75
-346 75 -490 -1 -124 -36 -192 -118 -228 -31 -13 -37 -12 -67 6 -30 17 -35 18
-46 5 -7 -9 -33 -26 -58 -39 l-46 -23 -78 23 c-88 25 -123 47 -150 93 -23 39
-24 128 -3 197 9 28 16 87 16 131 0 54 7 105 20 147 43 138 53 310 56 947 1
327 8 957 15 1400 13 877 9 1251 -16 1430 -35 249 -35 331 1 485 17 73 19 76
53 85 69 18 166 38 217 45 40 5 54 12 64 30 12 23 15 23 41 10 17 -9 40 -12
58 -9z m5114 -2398 l38 -29 132 10 c72 6 277 13 455 16 268 4 329 2 357 -10
40 -16 41 -19 20 -100 -22 -86 -26 -88 -180 -79 -71 4 -146 8 -165 8 -19 1
-40 5 -47 9 -34 22 -185 30 -385 20 -114 -5 -210 -12 -213 -15 -12 -11 -35
-128 -49 -245 -24 -192 -39 -516 -33 -691 5 -137 3 -179 -14 -263 -22 -116
-25 -285 -8 -554 7 -121 7 -185 0 -205 -5 -16 -6 -32 -2 -35 5 -2 14 -35 21
-72 6 -38 21 -108 32 -156 19 -84 19 -89 3 -107 -10 -11 -33 -24 -51 -30 -24
-8 -34 -18 -34 -32 0 -17 -3 -18 -15 -8 -11 9 -20 8 -43 -6 -28 -16 -31 -16
-53 0 -19 13 -37 15 -87 10 -63 -7 -64 -7 -53 14 6 12 11 69 11 131 0 60 5
122 11 137 24 64 40 236 49 509 13 414 13 1311 0 1415 -6 47 -13 105 -16 129
-2 25 -9 48 -15 52 -17 10 -177 22 -277 21 -62 0 -94 -6 -124 -21 -29 -14 -47
-17 -64 -11 -15 6 -40 4 -75 -6 -102 -31 -228 -14 -246 32 -6 18 25 162 40
182 12 16 97 15 222 -3 67 -10 188 -15 367 -15 251 0 368 9 368 30 0 19 87 -4
123 -32z m-1885 -31 c37 -60 38 -76 18 -233 -25 -192 -35 -443 -41 -1089 -7
-706 -4 -771 51 -992 19 -79 34 -155 32 -170 -7 -57 -128 -102 -192 -70 -17 8
-56 20 -87 26 -78 16 -102 35 -96 75 3 17 12 49 20 71 68 182 94 2004 31 2200
-15 47 -14 52 4 95 11 25 33 58 50 73 26 25 122 64 162 66 8 0 30 -23 48 -52z
m3857 29 c195 -36 374 -116 488 -216 93 -82 172 -258 184 -408 24 -323 -200
-604 -619 -775 -20 -9 -44 -27 -54 -42 -17 -26 -17 -29 2 -64 21 -39 162 -145
327 -247 51 -31 131 -85 178 -120 48 -35 91 -64 96 -64 5 0 52 -27 104 -60 51
-34 105 -63 119 -67 14 -3 36 -17 50 -30 31 -30 253 -174 297 -192 17 -7 36
-10 42 -7 18 11 33 -34 27 -78 -9 -53 -46 -108 -98 -146 -71 -52 -79 -48 -253
120 -121 116 -198 171 -475 340 -259 158 -709 459 -726 486 -8 12 -16 48 -17
79 l-2 57 120 42 c219 78 339 138 440 223 59 48 129 151 154 225 71 208 42
488 -65 628 -70 92 -214 175 -357 204 -102 21 -254 21 -307 0 -69 -28 -75 -48
-76 -279 0 -110 -6 -443 -12 -740 -12 -522 -10 -662 14 -1256 l7 -157 -27 -35
c-20 -26 -32 -34 -47 -30 -11 3 -49 -2 -84 -12 -48 -13 -68 -14 -84 -6 -49 27
-75 136 -47 196 24 50 42 117 56 205 15 90 22 1746 9 1880 -5 47 -12 135 -15
195 -6 103 -5 111 14 128 49 44 449 58 637 23z m2061 -40 l57 -54 -9 -69 c-13
-99 -9 -912 5 -1083 30 -360 57 -536 121 -771 41 -150 79 -220 159 -298 67
-65 111 -91 153 -91 13 0 29 -9 35 -19 26 -41 148 -53 257 -25 33 8 97 33 141
55 155 76 237 162 356 374 34 61 88 153 120 205 76 124 189 361 228 475 49
147 111 383 121 463 6 42 17 87 27 101 19 29 75 267 93 397 10 71 10 107 0
185 -19 142 -10 164 76 184 87 21 101 19 137 -19 18 -19 41 -36 52 -38 28 -5
31 -42 7 -97 -11 -25 -41 -136 -67 -246 -154 -652 -288 -1058 -437 -1324 -33
-58 -62 -119 -65 -136 -9 -44 -34 -91 -93 -170 -141 -188 -252 -300 -455 -457
-138 -108 -174 -121 -255 -97 -30 9 -43 8 -68 -5 -21 -11 -71 -18 -149 -22
-105 -6 -125 -4 -183 16 -158 53 -283 161 -350 301 -86 180 -119 388 -170
1069 -33 445 -42 535 -71 750 -23 168 -26 180 -44 180 -15 0 -22 23 -30 110
-6 58 -4 69 17 99 19 28 38 38 105 60 46 15 88 32 95 39 18 18 22 16 84 -42z"/>
<path d="M15780 11281 c-98 -35 -150 -119 -180 -288 -23 -133 -29 -406 -15
-666 8 -139 19 -369 25 -512 13 -312 21 -370 54 -404 23 -22 33 -24 128 -26
110 -2 140 4 175 37 18 17 30 19 65 14 24 -3 59 -2 78 2 29 7 36 13 43 45 l9
37 97 0 c121 0 159 17 286 128 277 242 387 464 372 752 -7 126 -24 194 -84
340 -68 166 -187 316 -303 382 -57 33 -553 169 -635 175 -42 2 -76 -2 -115
-16z"/>
<path d="M15720 9138 c-55 -28 -94 -84 -116 -163 -13 -49 -16 -106 -15 -303 1
-185 -3 -287 -19 -430 -17 -158 -19 -205 -10 -302 14 -158 12 -412 -4 -610
-14 -172 -14 -188 10 -310 8 -41 13 -109 12 -150 -5 -136 43 -180 220 -198 59
-7 136 -20 172 -31 117 -34 116 -34 156 1 36 31 39 32 138 34 68 1 127 8 181
23 169 46 457 211 603 346 191 177 351 468 408 740 14 68 19 130 18 255 0 149
-3 173 -27 253 -49 159 -121 279 -246 410 -228 239 -546 379 -948 418 l-121
12 -50 -36 c-48 -34 -51 -35 -66 -18 -36 39 -117 74 -185 78 -55 4 -74 1 -111
-19z"/>
</g>
</svg>
