<?xml version="1.0" standalone="no"?>
<!DOCTYPE svg PUBLIC "-//W3C//DTD SVG 20010904//EN"
 "http://www.w3.org/TR/2001/REC-SVG-20010904/DTD/svg10.dtd">
<svg version="1.0" xmlns="http://www.w3.org/2000/svg"
 width="300.000000pt" height="300.000000pt" viewBox="0 0 300.000000 300.000000"
 preserveAspectRatio="xMidYMid meet">
<metadata>
Created by potrace 1.14, written by Peter Selinger 2001-2017
</metadata>
<g transform="translate(0.000000,300.000000) scale(0.100000,-0.100000)"
fill="#000000" stroke="none">
<path d="M82 2783 c-17 -7 -45 -62 -39 -77 9 -22 110 -73 325 -165 114 -49
266 -118 337 -154 72 -37 226 -107 344 -156 117 -49 218 -94 223 -99 7 -7 -5
-20 -33 -38 -24 -15 -77 -51 -116 -81 -71 -52 -73 -54 -73 -97 0 -67 17 -73
81 -30 30 21 65 45 78 56 13 10 30 18 38 18 12 0 93 -113 93 -131 0 -7 -61
-47 -226 -147 -50 -31 -54 -35 -54 -72 0 -21 5 -42 11 -45 5 -4 48 16 93 44
46 28 88 51 94 51 6 0 29 -30 52 -67 47 -80 61 -60 -122 -170 -122 -72 -128
-77 -128 -108 0 -58 17 -58 109 -5 46 27 89 46 95 44 7 -3 28 -33 49 -67 28
-49 34 -65 24 -74 -12 -13 -97 -66 -205 -130 -34 -21 -64 -45 -67 -54 -9 -26
5 -69 22 -69 7 0 48 20 91 45 42 25 81 45 87 45 14 0 79 -101 79 -124 1 -18
-25 -36 -224 -155 -41 -25 -45 -31 -45 -67 0 -54 18 -54 108 0 41 26 80 46 86
46 11 0 71 -88 84 -122 5 -13 -28 -53 -126 -154 -73 -75 -138 -148 -146 -164
-19 -40 -7 -92 31 -129 30 -29 36 -31 109 -31 91 0 109 -5 109 -31 0 -12 10
-23 26 -29 30 -12 1384 -13 1487 -1 42 4 72 13 78 22 16 25 10 92 -11 119 -25
32 -26 53 -2 46 22 -7 52 11 36 22 -7 4 -14 83 -18 218 -7 196 -6 216 14 285
32 114 37 270 11 394 -37 181 -146 363 -284 475 -99 80 -272 160 -422 195 -28
6 -29 6 -13 -12 10 -10 44 -34 78 -53 129 -73 39 -33 -271 119 -373 183 -594
285 -903 417 -121 52 -222 97 -225 100 -3 3 3 5 14 4 37 -4 45 0 45 24 0 47
-46 70 -91 46 -25 -14 -24 -36 2 -50 11 -7 19 -14 16 -16 -7 -8 -131 51 -179
84 -24 16 -94 51 -156 78 -105 46 -110 49 -82 57 16 4 30 13 30 19 0 6 -3 8
-6 5 -4 -3 -15 5 -26 18 -22 28 -36 31 -63 11 -17 -12 -18 -16 -5 -32 18 -21
33 -26 -143 50 -121 53 -154 62 -185 49z m152 -84 c16 -15 -1 -22 -30 -12 -39
13 -46 38 -8 29 16 -4 33 -12 38 -17z m381 -161 c29 -13 36 -45 8 -33 -10 4
-26 9 -35 12 -21 6 -32 33 -13 33 8 0 26 -5 40 -12z m302 -44 c-3 -3 -12 -4
-19 -1 -8 3 -5 6 6 6 11 1 17 -2 13 -5z m-86 -87 c-1 -12 -15 -9 -19 4 -3 6 1
10 8 8 6 -3 11 -8 11 -12z m1211 -635 c255 -126 309 -156 314 -176 7 -30 41
-46 73 -34 21 7 31 3 67 -33 34 -34 41 -46 34 -60 -24 -44 -2 -81 47 -83 24
-1 29 -8 44 -56 16 -54 16 -54 -7 -73 -13 -10 -24 -29 -24 -42 0 -24 23 -55
41 -55 12 0 12 -62 -1 -94 -5 -14 -17 -26 -26 -26 -45 0 -74 -78 -37 -98 14
-9 12 -16 -21 -61 -21 -28 -40 -51 -43 -51 -3 0 -2 12 1 28 5 22 4 24 -4 10
-6 -10 -21 -18 -34 -18 -39 0 -59 -23 -54 -62 3 -31 0 -39 -24 -53 -28 -16
-28 -17 -28 -120 l0 -103 -57 -4 c-32 -2 -130 -5 -219 -7 l-161 -2 -6 53 c-4
29 -7 76 -7 105 0 47 -3 54 -30 70 -26 15 -30 22 -25 45 7 31 -23 68 -55 68
-11 0 -20 6 -21 13 0 6 -4 1 -10 -11 -12 -31 -25 -25 -62 26 -29 39 -29 43
-14 60 9 10 17 26 17 35 0 23 -61 86 -67 70 -9 -26 -22 -11 -32 37 -14 66 -14
67 9 73 11 3 25 17 31 31 11 23 9 31 -10 57 -12 17 -20 37 -17 45 3 9 1 12 -4
9 -6 -3 -10 -13 -10 -22 0 -9 -2 -14 -5 -11 -3 2 0 30 6 61 10 50 15 57 35 57
26 0 64 32 64 53 0 7 -7 22 -15 35 -12 16 -13 27 -5 41 13 26 13 107 -1 134
-6 12 -21 32 -33 45 -19 21 -22 39 -26 156 l-5 133 55 -22 c30 -13 193 -90
362 -173z m770 -1279 c22 -20 24 -76 2 -93 -10 -9 -57 -15 -133 -17 -96 -4
-120 -2 -130 11 -7 8 -19 12 -27 9 -21 -8 -19 60 4 80 20 18 55 23 176 25 71
2 93 -1 108 -15z m-1058 -22 c11 -12 16 -31 14 -53 -3 -32 -5 -33 -48 -34 -25
-1 -58 -2 -75 -4 -16 -1 -51 -2 -77 -1 -42 1 -48 4 -54 26 -3 14 -10 25 -15
25 -4 0 -13 10 -20 21 -17 33 2 39 137 39 106 0 123 -2 138 -19z m-284 -53 c0
-23 -3 -29 -11 -21 -6 6 -8 20 -4 32 9 30 15 26 15 -11z"/>
<path d="M2088 563 c-16 -2 -28 -9 -28 -14 0 -11 138 -11 165 1 20 8 20 9 -1
9 -12 1 -41 3 -65 5 -24 2 -56 2 -71 -1z"/>
<path d="M658 2619 c-27 -16 -21 -34 17 -52 43 -20 68 -13 59 17 -14 45 -39
57 -76 35z m27 -19 c3 -5 2 -10 -4 -10 -5 0 -13 5 -16 10 -3 6 -2 10 4 10 5 0
13 -4 16 -10z"/>
<path d="M1277 2383 c-4 -3 -7 -22 -7 -40 0 -30 5 -36 38 -49 122 -51 767
-354 809 -381 19 -13 23 -12 37 9 9 12 16 26 16 30 0 11 -796 405 -835 414
-16 4 -35 11 -41 15 -6 5 -14 6 -17 2z"/>
<path d="M2940 365 c0 -8 2 -15 4 -15 2 0 6 7 10 15 3 8 1 15 -4 15 -6 0 -10
-7 -10 -15z"/>
</g>
</svg>
